<?xml version="1.0" encoding="UTF-8"?>
<svg id="Layer_1" data-name="Layer 1" xmlns="http://www.w3.org/2000/svg" viewBox="0 0 1080 1080">
  <defs>
    <style>
      .cls-1 {
        fill: #808285;
      }
    </style>
  </defs>
  <path class="cls-1" d="m914.1,927.32c168.29-146.95,208.17-408.9,121.34-604.62C948.62,126.96,752.65.08,539.99,0,327.32-.08,129.99,127.81,43.94,324.03-42.08,520.24-1.99,780.28,165.88,927.32c27.06-54.62,26.53-129.02,67.98-176.15,41.44-47.13,114.76-46.27,165.36-77.28,14.66,12.5,33.44,19.76,48.83,28.18,15.41,8.43,49.43,4.88,47.61,27.47-1.83,22.62,21.21,32.79,24.41,52.49,3.2,19.7-10.99,41.59-10.93,62.72s-9.8,43.77-11.57,65.28c-1.77,21.5-7.91,42.3-10.93,63.99-3.05,21.7-9.04,45.67-8.31,68.45.75,22.75,18.84,38.11,40.32,34.73,21.48-3.38,50.12,10.27,68.11-3.49,17.97-13.79,16.04-39.97,13.02-60s-7.23-42.81-11.57-63.36c-4.36-20.52-5.71-45.98-10.07-66.77-4.36-20.77-7.46-42.95-11.28-63.65-3.82-20.7-11.67-40.74,4.47-57.25,16.12-16.53,5.3-42.51,26.07-48.92,20.77-6.41,36.16-9.83,54-21.12,17.84-11.29,33.57-20.54,52.38-9.02,18.78,11.52,36.22,11.17,54,21.12,17.78,9.95,38.41,12.86,55.62,21.43,17.2,8.56,29.29,18.49,41.09,33.96,11.82,15.47,15.5,36.54,22.35,54.55,6.85,17.99,12.13,38.05,18.42,56.54,6.31,18.47,14.35,37.02,18.86,56.1m-356.76-627.81c137.01,13.21,212.9,178.8,132.48,289.33-80.43,110.51-247.67,99.68-312.4-21.87-64.76-121.57,35.02-281.42,179.92-267.46Z"/>
</svg>