<?xml version="1.0" encoding="UTF-8"?>
<svg id="Layer_1" data-name="Layer 1" xmlns="http://www.w3.org/2000/svg" viewBox="0 0 190.47 215.68">
  <defs>
    <style>
      .cls-1 {
        fill: #9d1c20;
      }
    </style>
  </defs>
  <path class="cls-1" d="m154.6,35.53c5.12,2.74,8.68,2.23,10.27,1.82,1.29-.33,4.23-1.34,11.99-11.64,2.62-3.47,4.61-6.45,5.92-8.46l7.06-11.73.63-2.35-.34-1.93-1.51-.92-1.95-.33-3,.72-24.47,12.62-45.7,24.09-46.66,23.56-30.47,15.81-24.33,13.41-5.15,4.18-4.05,4.87-2.18,4.93-.67,3.79v2.79l.11,2.35.73,3.51.91,2.61,1.78,3.6.68,1.12,13.22,11.18,45.98,30.85,63.16,42.82,5.56,3.62,5.9,2.92,1.88.34,1.66-.34,1.94-1.68,1.01-2.06.96-4.72.14-1.78.16-5.67-.53-3.93-1-4.06-2.13-4.73-2.53-3.66-2.2-3-4.26-3.62-50.58-34.95c-7.62-4.99-13.74-9.18-17.95-12.1-6.38-4.43-7.7-5.7-12.67-8.97-2.84-1.87-5.45-4.08-8.38-5.79-.34-.2-2.29-1.34-4.4-3.36-1.8-1.72-2.76-2.67-2.69-3.91.05-.85.56-1.23,2.66-4.44,1.33-2.02.85-1.42,2.72-4.33,3.14-4.88,2.93-4.17,4.05-6.14.29-.51.67-1.2,1.36-2.03.94-1.13,1.92-1.88,2.62-2.34.85-.73,1.99-1.61,3.44-2.44,1.15-.65,2.06-1.03,2.21-1.09,1.9-.81,30.34-14.85,99.1-49.01Z"/>
</svg>