<?xml version="1.0" encoding="UTF-8"?>
<svg id="Layer_1" data-name="Layer 1" xmlns="http://www.w3.org/2000/svg" viewBox="0 0 702.23 241.5">
  <defs>
    <style>
      .cls-1 {
        fill: #9e1c20;
      }

      .cls-2 {
        fill: #514441;
      }
    </style>
  </defs>
  <path class="cls-1" d="m195.72,163.86c0,15.93-8.48,30.91-25.43,44.93-15.68,13-30.72,19.5-45.12,19.5-18.35,0-27.53-7.01-27.53-21.03,0-4.21.96-8.8,2.87-13.77,4.59-12.11,13.32-23.26,26.19-33.46,3.7-2.93,7.27-4.4,10.71-4.4,3.82,0,5.74,1.66,5.74,4.97,0,2.42-1.28,5.16-3.82,8.22-3.7,4.33-7.46,8.67-11.28,13-5.99,7.65-8.99,13.51-8.99,17.59s3.06,6.12,9.18,6.12c9.05,0,18.74-4.9,29.06-14.72,10.33-9.81,15.49-18.8,15.49-26.96,0-14.27-11.28-21.41-33.84-21.41-30.11,0-55.09,8.18-64.24,11.47C11.58,176.59.93,183.34.06,181.84c-2.4-4.13,73.99-61.9,142.51-61.38,31.26.24,53.15,10.56,53.15,43.4Zm-79.73-77.24c-22.72,9.22-38.62,6.88-38.62,6.88-12.2-2.1-24.38-8.1-23.8-10.88.48-2.29,8.9,1.01,21.67-3.02,8.64-2.73,21.71-9.59,31.76-14.02.69-.3,2.52-1.15,4.97-1.15,7.39,0,11.09,4.02,11.09,12.05,0,4.85-2.36,8.22-7.07,10.13Z"/>
  <path class="cls-2" d="m247.95,201.82c0,5.13-6.52,16.19-19.88,23.33-18.4,9.81-39.43,6.68-39.77,4.21-.26-1.89,11.68-2.6,27.15-12.24,7.59-4.73,13.15-9.81,16.83-13.58l-.38-.19c-6.5-2.68-10.39-4.46-11.66-5.35-3.82-2.55-5.74-6.12-5.74-10.71,0-8.03,4.08-15.74,12.24-23.13,7.27-6.5,13.83-9.75,19.69-9.75,5.1,0,7.65,2.55,7.65,7.65s-2.55,7.65-7.65,7.65c-1.79,0-4.72,1.85-8.79,5.54-4.59,3.95-7.14,7.59-7.65,10.9,7.14,2.93,11.09,4.65,11.86,5.16,4.08,2.55,6.12,6.06,6.12,10.52Z"/>
  <g>
    <path class="cls-2" d="m450.94,83.34c-.39,1.21-.58,2.26-.58,3.14,0,2.87.83,5.15,2.48,6.86,1.65,1.71,3.66,2.64,6.03,2.81s4.49-.25,6.36-1.24c22.7-11.46,42.34-20.85,58.92-28.18,16.58-7.33,29.97-12.75,40.16-16.28,10.19-3.52,16.78-5.29,19.75-5.29s4.3,1.21,4.3,3.64c0,3.64-11.35,20.49-34.05,50.57-15.98,8.48-25.73,13.77-29.25,15.86-3.53,2.09-6.64,4.85-9.34,8.26-2.7,3.42-4.05,7.55-4.05,12.4s1.43,9.37,4.3,13.88c-2.63,5.79-18.84,39.91-57.21,51.52-21.52,6.51-40.15,2.95-49.11.57,4.17-3.59,7.85-7.44,10.9-11.65,6.24-8.8,9.37-19.44,9.37-31.93,0-10.83-3.44-18.61-10.32-23.33-3.7-2.55-8.22-3.83-13.57-3.83-10.97,0-21.1,4.27-30.4,12.81-10.58,9.82-16.38,22.37-17.4,37.67-.13,1.02-.19,2.1-.19,3.25,0,5.67,1.2,10.79,3.56,15.38-14.56,2.12-29.31,3.39-44.28,3.74-1.12.05-2.92.07-5.1-.25,0,0-12.1,1.93-12.81-5.54-4.97-52.26-8.86-93.62-11.66-124.08-.64-5.35-3.44-8.03-8.41-8.03-3.7,0-7.01,1.53-9.94,4.59-2.8,2.93-4.21,6.18-4.21,9.75,0,.64.06,1.34.19,2.1,5.74,45.76,9.56,85.46,11.47,119.11.31,5.75,1.9,10.5,4.79,14.27,1.7,2.22,6.89,8.07,30.58,10.78,34.18,3.9,58.34-4.29,64.94-6.69,2.1-.76,3.81-1.45,4.93-1.9,3.05,1.31,7.46,3.02,12.91,4.53,33.7,9.3,63.13-1.77,70.88-4.8,39.48-15.44,57.88-48.1,62.67-57.29l89.41,59.99c6.17,4.19,11.7,8.02,16.61,11.49,4.9,3.47,8.65,5.92,11.24,7.36,2.59,1.43,4.55,2.15,5.87,2.15,3.86,0,5.78-4.52,5.78-13.55,0-5.51-.86-10.08-2.56-13.72-1.71-3.64-4.3-7-7.77-10.08-3.47-3.08-9.06-7.21-16.77-12.39l-83.79-56.85,14.21-21.32c12.45-5.95,29.44-14.21,50.99-24.79,21.54-10.58,39.75-19.72,54.62-27.43.99.33,2.04.69,3.14,1.07,1.1.39,2.04.58,2.81.58,3.08,0,6.94-2.34,11.57-7.02,4.63-4.68,8.84-9.97,12.64-15.87,3.8-5.89,5.7-9.5,5.7-10.83,0-2.31-1.27-3.47-3.8-3.47-1.1,0-3.47.91-7.11,2.73-3.64,1.82-12.29,6.34-25.95,13.55-13.66,7.22-26.31,13.88-37.93,20-11.63,6.11-27.9,14.35-48.84,24.71l26.44-39.66c2.42-3.86,3.64-7.33,3.64-10.41,0-2.09-1.71-6.58-5.12-13.47-3.42-6.88-7.66-10.33-12.73-10.33-9.26,0-21.51,2.29-36.77,6.86-15.26,4.57-38.98,12.48-71.15,23.72,4.9-3.88,12-9.39,20.74-15.77C528.82,9.38,544.15.95,543.63.02c-.29-.52-15.12,7.19-44.77,22.65,0,0-8.72,4.54-27.76,18.68-2.96,2.2-5.28,4.92-7.58,7.35m-82.17,129.08c.89-13,6.25-19.5,16.06-19.5,5.99,0,8.99,2.8,8.99,8.41,0,3.32-1.4,6.95-4.21,10.9-3.6,5.02-8.96,9.49-15.93,13.44-3.24-3.37-4.91-7.27-4.91-11.72v-1.53Z"/>
    <path class="cls-2" d="m388.62,100.35c3.95,0,7.07-1.85,9.37-5.55l6.5-10.52c1.27-2.17,1.91-4.27,1.91-6.31,0-3.18-1.21-5.89-3.63-8.13-2.43-2.23-5.23-3.35-8.42-3.35-3.95,0-7.07,1.85-9.37,5.54l-6.5,10.52c-1.27,2.17-1.91,4.27-1.91,6.31,0,3.19,1.21,5.9,3.63,8.13,2.42,2.23,5.22,3.35,8.42,3.35Z"/>
  </g>
  <path class="cls-1" d="m666.37,61.36c5.12,2.74,8.68,2.23,10.27,1.82,1.29-.33,4.23-1.34,11.99-11.64,2.62-3.47,4.61-6.45,5.92-8.46l7.06-11.73.63-2.35-.34-1.93-1.51-.92-1.95-.33-3,.72-24.47,12.62-45.7,24.09-46.66,23.56-30.47,15.81-24.33,13.41-5.15,4.18-4.05,4.87-2.18,4.93-.67,3.79v2.79l.11,2.35.73,3.51.91,2.61,1.78,3.6.68,1.12,13.22,11.18,45.98,30.85,63.16,42.82,5.56,3.62,5.9,2.92,1.88.34,1.66-.34,1.94-1.68,1.01-2.06.96-4.72.14-1.78.16-5.67-.53-3.93-1-4.06-2.13-4.73-2.53-3.66-2.2-3-4.26-3.62-50.58-34.95c-7.62-4.99-13.74-9.18-17.95-12.1-6.38-4.43-7.7-5.7-12.67-8.97-2.84-1.87-5.45-4.08-8.38-5.79-.34-.2-2.29-1.34-4.4-3.36-1.8-1.72-2.76-2.67-2.69-3.91.05-.85.56-1.23,2.66-4.44,1.33-2.02.85-1.42,2.72-4.33,3.14-4.88,2.93-4.17,4.05-6.14.29-.51.67-1.2,1.36-2.03.94-1.13,1.92-1.88,2.62-2.34.85-.73,1.99-1.61,3.44-2.44,1.15-.65,2.06-1.03,2.21-1.09,1.9-.81,30.34-14.85,99.1-49.01Z"/>
</svg>