<!DOCTYPE svg PUBLIC "-//W3C//DTD SVG 1.1//EN" "http://www.w3.org/Graphics/SVG/1.1/DTD/svg11.dtd">
<!-- Uploaded to: SVG Repo, www.svgrepo.com, Transformed by: SVG Repo Mixer Tools -->
<svg fill="#504441" height="800px" width="800px" version="1.1" id="Layer_1" xmlns="http://www.w3.org/2000/svg" xmlns:xlink="http://www.w3.org/1999/xlink" viewBox="0 0 512 512" xml:space="preserve">
<g id="SVGRepo_bgCarrier" stroke-width="0"/>
<g id="SVGRepo_tracerCarrier" stroke-linecap="round" stroke-linejoin="round"/>
<g id="SVGRepo_iconCarrier"> <g> <g> <path d="M464.98,146.286H47.02c-25.927,0-47.02,21.092-47.02,47.02v125.388c0,25.928,21.093,47.02,47.02,47.02H464.98 c25.928,0,47.02-21.092,47.02-47.02V193.306C512,167.378,490.908,146.286,464.98,146.286z M480.653,318.694 c0,8.643-7.03,15.673-15.673,15.673H47.02c-8.642,0-15.674-7.03-15.674-15.673V193.306c0-8.642,7.031-15.673,15.674-15.673H464.98 c8.643,0,15.673,7.031,15.673,15.673V318.694z"/> </g> </g> <g> <g> <polygon points="309.083,243.451 293.409,216.304 271.674,228.854 271.674,203.755 240.328,203.755 240.328,228.854 218.592,216.304 202.918,243.451 224.653,256 202.917,268.549 218.591,295.696 240.328,283.146 240.328,308.245 271.674,308.245 271.674,283.146 293.409,295.696 309.083,268.549 287.347,256 "/> </g> </g> <g> <g> <polygon points="448.369,243.451 432.695,216.304 410.961,228.854 410.961,203.755 379.615,203.755 379.615,228.854 357.879,216.304 342.205,243.451 363.941,256 342.204,268.549 357.878,295.696 379.615,283.146 379.615,308.245 410.961,308.245 410.961,283.146 432.695,295.696 448.369,268.549 426.634,256 "/> </g> </g> <g> <g> <polygon points="169.796,243.451 154.122,216.304 132.387,228.854 132.387,203.755 101.041,203.755 101.041,228.854 79.305,216.304 63.631,243.451 85.366,256 63.63,268.549 79.304,295.696 101.041,283.146 101.041,308.245 132.387,308.245 132.387,283.146 154.122,295.696 169.796,268.549 148.06,256 "/> </g> </g> </g>
</svg>