
<svg width="800px" height="800px" viewBox="0 0 24 24" fill="none" xmlns="http://www.w3.org/2000/svg">

<g id="SVGRepo_bgCarrier" stroke-width="0"/>

<g id="SVGRepo_tracerCarrier" stroke-linecap="round" stroke-linejoin="round"/>

<g id="SVGRepo_iconCarrier"> <path d="M7 9V15M21 14V7.2C21 6.0799 21 5.51984 20.782 5.09202C20.5903 4.71569 20.2843 4.40973 19.908 4.21799C19.4802 4 18.9201 4 17.8 4H6.2C5.0799 4 4.51984 4 4.09202 4.21799C3.71569 4.40973 3.40973 4.71569 3.21799 5.09202C3 5.51984 3 6.0799 3 7.2V16.8C3 17.9201 3 18.4802 3.21799 18.908C3.40973 19.2843 3.71569 19.5903 4.09202 19.782C4.51984 20 5.0799 20 6.2 20H12M12 13H12.7976C13.2426 13 13.465 13 13.6765 13.0463C13.8641 13.0874 14.0447 13.1553 14.213 13.2479C14.4026 13.3523 14.57 13.4988 14.9049 13.7918L20.8649 19.0068C21.4792 19.5443 21.5107 20.4893 20.9335 21.0665C20.4082 21.5918 19.5656 21.6199 19.0065 21.1307L13.0928 15.9562C12.6907 15.6043 12.4896 15.4284 12.3452 15.2158C12.2173 15.0273 12.1225 14.8184 12.065 14.5981C12 14.3495 12 14.0823 12 13.5479V13Z" stroke="#9E0D0D" stroke-width="2" stroke-linecap="round" stroke-linejoin="round"/> </g>

</svg>