
<svg fill="#000000" width="800px" height="800px" viewBox="0 0 24 24" id="target-2" data-name="Flat Color" xmlns="http://www.w3.org/2000/svg" class="icon flat-color">

<g id="SVGRepo_bgCarrier" stroke-width="0"/>

<g id="SVGRepo_tracerCarrier" stroke-linecap="round" stroke-linejoin="round" stroke="#ffffff" stroke-width="0.048"/>

<g id="SVGRepo_iconCarrier">

<path id="secondary" d="M22,5.84a1,1,0,0,0-.54-.73l-1.7-.86-.86-1.7A1,1,0,0,0,18.16,2a1,1,0,0,0-.87.28l-2,2A1,1,0,0,0,15,5V7.59l-3.71,3.7a1,1,0,0,0,0,1.42,1,1,0,0,0,1.42,0L16.41,9H19a1,1,0,0,0,.71-.29l2-2A1,1,0,0,0,22,5.84Z" style="fill: #000000;"/>

<path id="primary" d="M12,22A10,10,0,0,1,12,2a1,1,0,0,1,0,2,8,8,0,1,0,8,8,1,1,0,0,1,2,0A10,10,0,0,1,12,22Zm5-10a1,1,0,0,0-2,0,3,3,0,1,1-3-3,1,1,0,0,0,0-2,5,5,0,1,0,5,5Z" style="fill: #9E0D0D;"/>

</g>

</svg>