<?xml version="1.0" encoding="UTF-8"?>
<svg id="Layer_1" data-name="Layer 1" xmlns="http://www.w3.org/2000/svg" viewBox="0 0 252.42 95.05">
  <defs>
    <style>
      .cls-1 {
        fill: #9e0d0d;
      }
    </style>
  </defs>
  <path class="cls-1" d="m71.38,58.57c0,5.7-3.03,11.05-9.09,16.06-5.6,4.65-10.98,6.97-16.13,6.97-6.56,0-9.84-2.5-9.84-7.52,0-1.5.34-3.14,1.03-4.92,1.64-4.33,4.76-8.31,9.36-11.96,1.32-1.05,2.6-1.57,3.83-1.57,1.37,0,2.05.59,2.05,1.78,0,.87-.46,1.85-1.37,2.94-1.32,1.55-2.67,3.1-4.03,4.65-2.14,2.73-3.21,4.83-3.21,6.29s1.09,2.19,3.28,2.19c3.23,0,6.7-1.75,10.39-5.26,3.69-3.51,5.54-6.72,5.54-9.64,0-5.1-4.03-7.65-12.1-7.65-10.76,0-19.69,2.93-22.96,4.1C5.57,63.12,1.76,65.53,1.45,64.99c-.86-1.48,26.45-22.13,50.94-21.94,11.17.09,19,3.77,19,15.51Zm-28.5-27.61c-8.12,3.3-13.8,2.46-13.8,2.46-4.36-.75-8.71-2.9-8.51-3.89.17-.82,3.18.36,7.75-1.08,3.09-.98,7.76-3.43,11.35-5.01.25-.11.9-.41,1.78-.41,2.64,0,3.96,1.44,3.96,4.31,0,1.73-.84,2.94-2.53,3.62Z"/>
  <path d="m90.05,72.13c0,1.83-2.33,5.79-7.11,8.34-6.58,3.51-14.09,2.39-14.21,1.5-.09-.67,4.17-.93,9.7-4.37,2.71-1.69,4.7-3.5,6.01-4.85l-.14-.07c-2.32-.96-3.71-1.59-4.17-1.91-1.37-.91-2.05-2.19-2.05-3.83,0-2.87,1.46-5.63,4.37-8.27,2.6-2.32,4.94-3.48,7.04-3.48,1.82,0,2.73.91,2.73,2.73s-.91,2.73-2.73,2.73c-.64,0-1.69.66-3.14,1.98-1.64,1.41-2.55,2.71-2.73,3.9,2.55,1.05,3.96,1.66,4.24,1.84,1.46.91,2.19,2.16,2.19,3.76Z"/>
  <g>
    <path d="m162.6,29.79c-.14.43-.21.81-.21,1.12,0,1.02.3,1.84.89,2.45.59.61,1.31.94,2.16,1s1.6-.09,2.27-.44c8.11-4.1,15.13-7.45,21.06-10.07,5.93-2.62,10.71-4.56,14.35-5.82,3.64-1.26,6-1.89,7.06-1.89s1.54.43,1.54,1.3c0,1.3-4.06,7.33-12.17,18.08-5.71,3.03-9.2,4.92-10.46,5.67-1.26.75-2.37,1.73-3.34,2.95-.97,1.22-1.45,2.7-1.45,4.43s.51,3.35,1.54,4.96c-.94,2.07-6.73,14.27-20.45,18.41-7.69,2.33-14.35,1.05-17.55.2,1.49-1.28,2.8-2.66,3.89-4.16,2.23-3.14,3.35-6.95,3.35-11.41,0-3.87-1.23-6.65-3.69-8.34-1.32-.91-2.94-1.37-4.85-1.37-3.92,0-7.54,1.53-10.87,4.58-3.78,3.51-5.85,8-6.22,13.46-.05.37-.07.75-.07,1.16,0,2.03.43,3.86,1.27,5.5-5.2.76-10.48,1.21-15.83,1.34-.4.02-1.04.03-1.82-.09,0,0-4.32.69-4.58-1.98-1.78-18.68-3.17-33.46-4.17-44.35-.23-1.91-1.23-2.87-3.01-2.87-1.32,0-2.51.55-3.55,1.64-1,1.05-1.5,2.21-1.5,3.49,0,.23.02.48.07.75,2.05,16.36,3.42,30.55,4.1,42.57.11,2.05.68,3.75,1.71,5.1.61.79,2.46,2.88,10.93,3.85,12.22,1.4,20.85-1.53,23.21-2.39.75-.27,1.36-.52,1.76-.68,1.09.47,2.67,1.08,4.62,1.62,12.04,3.33,22.57-.63,25.34-1.71,14.11-5.52,20.69-17.19,22.4-20.48l31.96,21.44c2.21,1.5,4.18,2.87,5.94,4.11,1.75,1.24,3.09,2.12,4.02,2.63.92.51,1.62.77,2.1.77,1.38,0,2.07-1.62,2.07-4.84,0-1.97-.31-3.6-.92-4.9-.61-1.3-1.54-2.5-2.78-3.6-1.24-1.1-3.24-2.58-6-4.43l-29.95-20.32,5.08-7.62c4.45-2.13,10.52-5.08,18.22-8.86,7.7-3.78,14.21-7.05,19.52-9.81.35.12.73.25,1.12.38.39.14.73.21,1,.21,1.1,0,2.48-.84,4.13-2.51,1.65-1.67,3.16-3.56,4.52-5.67,1.36-2.11,2.04-3.4,2.04-3.87,0-.83-.45-1.24-1.36-1.24-.39,0-1.24.33-2.54.98-1.3.65-4.39,2.26-9.27,4.84-4.88,2.58-9.4,4.96-13.56,7.15-4.16,2.19-9.97,5.13-17.46,8.83l9.45-14.18c.87-1.38,1.3-2.62,1.3-3.72,0-.75-.61-2.35-1.83-4.81-1.22-2.46-2.74-3.69-4.55-3.69-3.31,0-7.69.82-13.14,2.45-5.46,1.63-13.93,4.46-25.43,8.48,1.75-1.39,4.29-3.36,7.41-5.64C190.44,3.35,195.92.34,195.73,0c-.1-.19-5.4,2.57-16,8.1,0,0-3.12,1.62-9.92,6.68-1.06.79-1.89,1.76-2.71,2.63m-29.37,46.14c.32-4.65,2.23-6.97,5.74-6.97,2.14,0,3.21,1,3.21,3.01,0,1.19-.5,2.48-1.5,3.9-1.29,1.79-3.2,3.39-5.69,4.81-1.16-1.21-1.76-2.6-1.76-4.19v-.55Z"/>
    <path d="m140.33,35.87c1.41,0,2.53-.66,3.35-1.98l2.32-3.76c.46-.77.68-1.53.68-2.25,0-1.14-.43-2.11-1.3-2.9-.87-.8-1.87-1.2-3.01-1.2-1.41,0-2.53.66-3.35,1.98l-2.32,3.76c-.46.77-.68,1.53-.68,2.25,0,1.14.43,2.11,1.3,2.9.87.8,1.87,1.2,3.01,1.2Z"/>
  </g>
  <path class="cls-1" d="m239.6,21.93c1.83.98,3.1.8,3.67.65.46-.12,1.51-.48,4.29-4.16.94-1.24,1.65-2.3,2.11-3.02l2.52-4.19.23-.84-.12-.69-.54-.33-.7-.12-1.07.26-8.74,4.51-16.33,8.61-16.68,8.42-10.89,5.65-8.7,4.79-1.84,1.49-1.45,1.74-.78,1.76-.24,1.36v1l.04.84.26,1.25.32.93.64,1.29.24.4,4.72,4,16.43,11.03,22.57,15.3,1.99,1.29,2.11,1.04.67.12.59-.12.69-.6.36-.74.34-1.69.05-.64.06-2.03-.19-1.4-.36-1.45-.76-1.69-.9-1.31-.79-1.07-1.52-1.29-18.08-12.49c-2.72-1.79-4.91-3.28-6.41-4.33-2.28-1.58-2.75-2.04-4.53-3.2-1.01-.67-1.95-1.46-3-2.07-.12-.07-.82-.48-1.57-1.2-.64-.62-.98-.95-.96-1.4.02-.31.2-.44.95-1.59.47-.72.3-.51.97-1.55,1.12-1.74,1.05-1.49,1.45-2.19.1-.18.24-.43.48-.72.33-.4.68-.67.94-.84.3-.26.71-.58,1.23-.87.41-.23.74-.37.79-.39.68-.29,10.84-5.31,35.42-17.52Z"/>
</svg>