<?xml version="1.0" encoding="UTF-8"?>
<svg id="Layer_1" data-name="Layer 1" xmlns="http://www.w3.org/2000/svg" xmlns:xlink="http://www.w3.org/1999/xlink" viewBox="0 0 1920 1080">
  <defs>
    <style>
      .cls-1 {
        fill: #9e0d0d;
      }

      .cls-2 {
        fill: url(#New_Pattern);
      }

      .cls-3 {
        fill: none;
      }
    </style>
    <pattern id="New_Pattern" data-name="New Pattern" x="0" y="0" width="211.98" height="220.56" patternUnits="userSpaceOnUse" viewBox="0 0 211.98 220.56">
      <g>
        <rect class="cls-3" width="211.98" height="220.56"/>
        <path class="cls-1" d="m187.12,95.73c3.55,1.9,6.01,1.54,7.12,1.26.89-.23,2.93-.93,8.31-8.06,1.82-2.41,3.2-4.47,4.1-5.86l4.89-8.13.44-1.63-.24-1.34-1.05-.64-1.35-.23-2.08.5-16.95,8.74-31.67,16.69-32.33,16.33-21.11,10.95-16.86,9.29-3.57,2.9-2.81,3.38-1.51,3.42-.46,2.63v1.94l.08,1.63.51,2.43.63,1.81,1.23,2.5.47.77,9.16,7.75,31.86,21.38,43.77,29.67,3.85,2.51,4.09,2.02,1.3.24,1.15-.24,1.34-1.16.7-1.43.67-3.27.1-1.24.11-3.93-.37-2.72-.69-2.82-1.48-3.28-1.75-2.54-1.52-2.08-2.95-2.51-35.05-24.22c-5.28-3.46-9.52-6.36-12.44-8.39-4.42-3.07-5.34-3.95-8.78-6.21-1.97-1.29-3.78-2.83-5.81-4.01-.23-.14-1.59-.93-3.05-2.33-1.25-1.19-1.91-1.85-1.86-2.71.03-.59.39-.85,1.85-3.08.92-1.4.59-.98,1.88-3,2.18-3.38,2.03-2.89,2.81-4.25.2-.35.46-.83.94-1.4.65-.78,1.33-1.3,1.81-1.62.59-.51,1.38-1.12,2.39-1.69.8-.45,1.43-.71,1.53-.76,1.32-.56,21.02-10.29,68.67-33.96Z"/>
        <path class="cls-1" d="m24.08,25.36c-3.61,1.78-6.06,1.34-7.15,1.02-.88-.26-2.9-1.03-8.03-8.34-1.73-2.47-3.04-4.57-3.9-6L.38,3.76l-.38-1.64L.28.78,1.35.18l1.36-.18,2.06.57,16.65,9.31,31.08,17.76,31.76,17.42,20.73,11.66,16.53,9.86,3.47,3.01,2.69,3.47,1.39,3.47.37,2.64-.07,1.93-.13,1.63-.59,2.41-.69,1.79-1.32,2.45-.5.76-9.42,7.43-32.57,20.29-44.75,28.17-3.93,2.37-4.15,1.88-1.31.19-1.14-.28-1.3-1.21-.65-1.45-.55-3.29-.06-1.24.02-3.93.46-2.71.79-2.79,1.59-3.23,1.84-2.48,1.59-2.02,3.04-2.41,35.85-23.02c5.4-3.28,9.73-6.03,12.71-7.96,4.52-2.92,5.47-3.77,8.98-5.91,2.01-1.23,3.87-2.7,5.94-3.81.24-.13,1.62-.87,3.13-2.22,1.29-1.15,1.97-1.78,1.95-2.64-.01-.59-.36-.87-1.74-3.14-.87-1.43-.55-1-1.78-3.06-2.06-3.45-1.93-2.95-2.66-4.34-.19-.36-.43-.85-.89-1.44-.62-.8-1.28-1.34-1.76-1.68-.57-.53-1.34-1.16-2.33-1.77-.78-.48-1.4-.76-1.5-.81-1.3-.61-20.66-11-67.48-36.27Z"/>
      </g>
    </pattern>
  </defs>
  <rect class="cls-2" width="1920" height="1080"/>
</svg>